<svg xmlns="http://www.w3.org/2000/svg" viewBox="0 0 1024 1024">
  <defs>
    <linearGradient id="bg" x1="0" y1="0" x2="1" y2="1">
      <stop offset="0" stop-color="#102d24"/>
      <stop offset="1" stop-color="#2f684e"/>
    </linearGradient>
    <linearGradient id="bean" x1="0" y1="0" x2="1" y2="1">
      <stop offset="0" stop-color="#f1d184"/>
      <stop offset="1" stop-color="#b96f3e"/>
    </linearGradient>
    <filter id="shadow" x="-20%" y="-20%" width="140%" height="140%">
      <feDropShadow dx="0" dy="28" stdDeviation="34" flood-color="#071a13" flood-opacity=".32"/>
    </filter>
  </defs>
  <rect width="1024" height="1024" rx="224" fill="url(#bg)"/>
  <circle cx="512" cy="512" r="330" fill="none" stroke="#ffffff" stroke-opacity=".08" stroke-width="8"/>
  <path d="M760 255c-165 14-278 91-320 221 132 14 258-56 320-221Z" fill="#78a87b" opacity=".95"/>
  <path d="M445 475c96-24 190-84 269-170" fill="none" stroke="#d8e8d6" stroke-opacity=".68" stroke-width="20" stroke-linecap="round"/>
  <g transform="rotate(-13 500 564)">
    <ellipse cx="500" cy="570" rx="205" ry="270" fill="url(#bean)"/>
    <path d="M500 325c-82 92-98 184-55 276 33 70 31 139-10 207" fill="none" stroke="#5b3425" stroke-width="34" stroke-linecap="round"/>
    <path d="M510 337c81 89 97 179 55 268-35 75-31 143 8 196" fill="none" stroke="#fff1c8" stroke-opacity=".38" stroke-width="17" stroke-linecap="round"/>
  </g>
  <path d="M216 733c118 83 240 111 366 85" fill="none" stroke="#ffffff" stroke-opacity=".14" stroke-width="16" stroke-linecap="round"/>
</svg>
